<?xml version="1.0" encoding="UTF-8"?>
<svg version="1.1" xmlns="http://www.w3.org/2000/svg" width="512" height="512">
<path d="M0 0 C168.96 0 337.92 0 512 0 C512 168.96 512 337.92 512 512 C343.04 512 174.08 512 0 512 C0 343.04 0 174.08 0 0 Z " fill="#CD0F19" transform="translate(0,0)"/>
<path d="M0 0 C4.15643038 2.95999995 7.90049262 6.35408216 10.65234375 10.67578125 C11.35230469 11.76632813 11.35230469 11.76632813 12.06640625 12.87890625 C18.49896388 25.1690443 17.21186822 41.77255641 14.08984375 54.92578125 C7.73470025 74.74147175 -7.37467327 90.08036689 -25.19140625 100.13671875 C-36.8019536 105.79829753 -51.33252514 109.01076968 -64.12890625 106.02734375 C-72.38257598 103.0468519 -79.22856365 97.4726351 -83.34765625 89.67578125 C-88.982579 77.07546787 -89.02460859 63.61169958 -84.34765625 50.67578125 C-80.26537899 40.48132374 -75.41194739 31.14533461 -68.34765625 22.67578125 C-67.52523437 21.67933594 -66.7028125 20.68289062 -65.85546875 19.65625 C-50.29753417 1.44138437 -23.46698859 -13.23678724 0 0 Z " fill="#F59F1B" transform="translate(248.34765625,82.32421875)"/>
<path d="M0 0 C5.85796813 4.64898322 8.8833069 10.48057118 10.8984375 17.64453125 C12.68867356 35.86724987 7.32347953 50.14363627 -4.30078125 64.328125 C-14.91635914 76.49991326 -27.00121559 85.72155035 -42.1015625 91.64453125 C-42.91625 91.96550781 -43.7309375 92.28648437 -44.5703125 92.6171875 C-50.60137252 94.61823365 -56.42716315 94.91979643 -62.7265625 94.95703125 C-63.51417969 94.96259033 -64.30179688 94.96814941 -65.11328125 94.97387695 C-76.63356295 94.83323912 -83.7825021 92.08447939 -91.8515625 83.83203125 C-98.53390874 74.36537408 -100.5361899 64.47604486 -98.67578125 53.0234375 C-92.51720515 30.01378815 -74.93696764 15.60604419 -55.359375 4.06640625 C-39.51459353 -5.05655521 -16.40047582 -10.57800206 0 0 Z " fill="#F5971C" transform="translate(186.1015625,218.35546875)"/>
<path d="M0 0 C6.03625484 5.63540979 8.02729054 12.18973468 8.3125 20.3125 C7.97474814 35.743538 -0.88957073 47.63916297 -11.27734375 58.34765625 C-28.40709331 74.50833512 -50.12856064 85.55873809 -73.9621582 85.35620117 C-79.46410645 85.18353932 -84.06385496 84.41600348 -89 82 C-89.63164063 81.7215625 -90.26328125 81.443125 -90.9140625 81.15625 C-96.55501345 78.37178059 -99.49592984 74.18290904 -102.109375 68.65234375 C-104.95902276 60.16589274 -103.17322365 51.34747447 -99.7421875 43.33203125 C-88.33992856 21.52457189 -68.4547049 6.26424897 -45.19140625 -1.28125 C-30.66267084 -5.58606049 -13.48369184 -8.72226316 0 0 Z " fill="#F5961C" transform="translate(151,350)"/>
<path d="M0 0 C5.67013157 4.02759346 9.1765073 8.6754238 10.96875 15.3984375 C12.81144983 31.70418831 6.24773136 45.96887139 -3.65625 58.5234375 C-12.98254007 69.28776332 -25.630531 78.56055333 -40.2734375 79.63671875 C-50.01106526 79.83565953 -50.01106526 79.83565953 -54.53125 77.8984375 C-61.68755155 70.74213595 -66.05834658 63.84602306 -66.46875 53.5859375 C-65.97226874 36.40336875 -54.1069958 20.80778117 -42.23046875 9.28125 C-30.61040415 -0.66701134 -14.8525524 -7.814216 0 0 Z " fill="#F7B217" transform="translate(328.03125,126.6015625)"/>
<path d="M0 0 C4.91065671 4.64202122 7.1294326 8.07214018 7.34350586 14.91577148 C7.54587105 30.31591928 2.3441964 43.34476464 -8.25 54.75 C-20.43029028 66.13829831 -35.4718573 71.79082934 -51.9453125 71.3828125 C-58.51742663 70.96548776 -62.0318908 68.12348624 -66.375 63.4375 C-70.80380826 56.79428761 -70.79423961 50.90102945 -70 43 C-65.53309508 26.6678789 -54.12343722 12.88900968 -40 4 C-28.73785643 -2.12747481 -11.88487098 -7.623258 0 0 Z " fill="#F6A61A" transform="translate(276,232)"/>
<path d="M0 0 C3.32483121 3.11058194 5.8289576 6.22604594 6.2734375 10.8359375 C6.65577153 24.15880779 2.55164171 33.02642255 -6 43 C-6.721875 43.99 -7.44375 44.98 -8.1875 46 C-14.59524708 53.56704343 -23.91655856 59.23980914 -33 63 C-33.7528125 63.31839844 -34.505625 63.63679688 -35.28125 63.96484375 C-43.59269229 66.97081538 -55.42459284 68.12231463 -63.6875 64.375 C-67.78832804 61.83466405 -70.84006289 58.31987422 -73 54 C-74.2599605 39.78929796 -69.88244869 30.8210153 -61 20 C-47.74246643 4.44347217 -19.92657082 -12.89135153 0 0 Z " fill="#F7A51A" transform="translate(248,334)"/>
<path d="M0 0 C3.09893272 1.86385084 4.70606461 3.91874946 5.9921875 7.22265625 C7.79260801 21.58811671 2.71354659 35.54036323 -6.04296875 46.8515625 C-11.44696321 53.21956284 -16.07133642 56.57716422 -24.0078125 59.22265625 C-36.36331775 60.22891235 -36.36331775 60.22891235 -40.6328125 57.47265625 C-45.60014648 52.7667609 -47.16486541 49.20460713 -47.3828125 42.34765625 C-47.26725491 30.81757622 -42.61933187 21.64673433 -35.0078125 13.22265625 C-34.25951172 12.30226562 -34.25951172 12.30226562 -33.49609375 11.36328125 C-25.70684296 2.49491511 -11.69855011 -4.5292052 0 0 Z " fill="#F7BE13" transform="translate(382.0078125,162.77734375)"/>
<path d="M0 0 C3.04860877 2.50935015 4.47305879 5.21132211 5.08984375 9.08984375 C5.10740861 22.12296776 0.71501238 30.9386219 -8.15234375 40.265625 C-17.19320613 48.85538406 -29.06910117 53.89937937 -41.4921875 53.68359375 C-45.61003634 53.22104087 -47.34847152 52.20091349 -50.34375 49.36328125 C-53.71340403 44.04777067 -53.43633904 37.38414426 -52.34375 31.36328125 C-48.2329396 18.01583515 -39.60294005 8.04048815 -27.46875 1.30078125 C-18.49048437 -3.29652344 -9.28093273 -4.77810732 0 0 Z " fill="#F6B816" transform="translate(344.34375,243.63671875)"/>
<path d="M0 0 C3.80531151 2.87339849 5.68887161 4.69243093 6.375 9.50390625 C6.88412057 19.67040771 2.77554356 27.3092552 -3.6640625 34.921875 C-12.66418111 44.38591725 -23.20582983 51.14854716 -36.5 51.6875 C-41.41693185 51.5795838 -44.27008678 50.79654255 -47.9375 47.3125 C-50.72229911 43.32095461 -51.59946818 39.65348201 -51.40625 34.86328125 C-49.24292538 23.09118975 -40.43081744 13.43081748 -31.125 6.5 C-22.01631002 0.54051601 -10.65872238 -5.4408541 0 0 Z " fill="#F7BA15" transform="translate(321.9375,318.6875)"/>
<path d="M0 0 C3.56932204 2.1726308 5.4529158 4.15943132 7 8 C8.29904483 18.3017276 5.78939898 26.37476362 -0.125 34.75 C-4.76185128 40.41057169 -11.67703071 45.30223249 -19.0859375 46.2734375 C-23.50930906 46.46969631 -25.37370564 46.48276857 -29 43.6875 C-33.15390885 38.10568498 -32.76345507 31.6875728 -32 25 C-28.18719285 13.57519571 -21.27245334 6.50737325 -10.71484375 1.10546875 C-6.68098605 -0.53709489 -4.30814079 -0.74278289 0 0 Z " fill="#FACE0A" transform="translate(424,187)"/>
<path d="M0 0 C3.99783835 3.14981203 3.99783835 3.14981203 4.3984375 6.09375 C4.5313731 16.40955238 2.27633953 24.19097688 -4.875 31.8046875 C-11.31797144 37.4910979 -19.27029496 42.13839507 -28.01171875 41.875 C-32.01590441 41.35518685 -34.20025384 39.48935756 -36.75 36.5 C-38.92885226 31.22488399 -38.8035998 26.98681117 -36.8359375 21.62109375 C-31.83515324 10.93760011 -25.32056302 5.03435801 -14.9375 -0.375 C-9.88773398 -2.05825534 -4.86252558 -2.27607581 0 0 Z " fill="#F9CD0A" transform="translate(396.9375,250.375)"/>
<path d="M0 0 C2.0625 1.6875 2.0625 1.6875 4.0625 4.6875 C4.66786471 11.83080357 3.49634226 17.38076073 -0.7890625 23.203125 C-6.22785219 29.62204994 -13.99714824 37.12020856 -22.80078125 37.9609375 C-31.94565268 38.23020891 -31.94565268 38.23020891 -36.25 35.875 C-38.81808354 31.02417554 -39.02220519 27.04763409 -37.9375 21.6875 C-33.73637759 11.82690376 -25.83374912 4.92512827 -16.375 0.1875 C-10.79780989 -2.03350491 -5.52912734 -2.47046115 0 0 Z " fill="#FACE0A" transform="translate(383.9375,309.3125)"/>
<path d="M0 0 C2.875 1.875 2.875 1.875 5 5 C6.4548363 12.14767401 4.41590861 18.72695795 1 25 C-2.8045103 30.58921036 -7.48998057 34.82999352 -14 37 C-20.24001551 37.56727414 -20.24001551 37.56727414 -23.1875 35.3671875 C-26.12953107 31.52479347 -25.60380736 28.0037509 -25.44140625 23.3203125 C-24.28450089 14.61792702 -18.53198814 8.48841607 -12 3 C-7.93167491 0.39627194 -4.8308928 -0.82227963 0 0 Z " fill="#F9D300" transform="translate(457,206)"/>
<path d="M0 0 C0.76441406 -0.01675781 1.52882813 -0.03351563 2.31640625 -0.05078125 C4.4375 0.3125 4.4375 0.3125 6.1875 1.54296875 C8.67265702 5.06101916 7.9563814 9.20916205 7.4375 13.3125 C5.40170938 21.09715846 0.35037598 27.12287681 -6.35546875 31.4765625 C-10.81794291 33.66184733 -14.73799188 33.94522238 -19.5625 33.3125 C-22.6123871 30.79634314 -23.40145474 29.10162176 -24.1875 25.25 C-22.90911302 17.19616203 -19.37831841 10.27627884 -12.9375 5.1875 C-8.7023733 2.20062117 -5.27660571 0.0267848 0 0 Z " fill="#F9D300" transform="translate(431.5625,255.6875)"/>
<path d="M0 0 C2.625 2 2.625 2 4 5 C4 12.3369072 1.44988422 18.15283726 -3.3125 23.6875 C-8.69480664 28.31878711 -13.14200308 32.10284006 -20.5 32.25 C-21.2734375 32.27578125 -22.046875 32.3015625 -22.84375 32.328125 C-25 32 -25 32 -26.75 30.80859375 C-29.35774544 27.03551207 -28.61650597 22.35744027 -28 18 C-25.35467812 10.741339 -18.37312626 4.10101684 -11.50390625 0.80078125 C-7.60641461 -0.44568644 -4.0371346 -0.71420444 0 0 Z " fill="#F9D400" transform="translate(429,300)"/>
<path d="M0 0 C0.99 0.495 0.99 0.495 2 1 C6.98882547 17.53804781 5.28937179 32.82605229 -1.875 48.4375 C-5.70453961 55.32136876 -10.2947947 61.5730974 -16 67 C-17.27592817 68.47477412 -18.54622419 69.95442989 -19.8125 71.4375 C-30.57321671 83.63974668 -47.19963099 91.67820524 -63.45703125 93.05078125 C-69.3464635 92.93317354 -75.19176543 91.92595044 -81 91 C-81 90.34 -81 89.68 -81 89 C-81.57621094 88.88269531 -82.15242188 88.76539063 -82.74609375 88.64453125 C-87.46503703 87.2950934 -91.7077228 84.41342819 -95 80.8125 C-96 79 -96 79 -96 77 C-96.66 77 -97.32 77 -98 77 C-103.35934727 64.21374002 -107.74888189 52.74676337 -103 39 C-102.49570002 37.29293108 -101.99598275 35.58450399 -101.5 33.875 C-100.48833485 30.50620641 -99.40045817 27.23182655 -98 24 C-97.01 24.33 -96.02 24.66 -95 25 C-95.34933594 25.86882812 -95.69867188 26.73765625 -96.05859375 27.6328125 C-96.51363281 28.78523438 -96.96867188 29.93765625 -97.4375 31.125 C-97.88996094 32.26195312 -98.34242188 33.39890625 -98.80859375 34.5703125 C-102.84033435 46.17643791 -102.14905015 58.53342159 -97.61328125 69.828125 C-93.68615329 77.54925794 -88.22856519 83.09580052 -80 86 C-65.97272932 90.39088935 -49.46883918 85.50672757 -37 79 C-33.14113404 76.54791049 -29.55949811 73.86510422 -26 71 C-25.37867188 70.54238281 -24.75734375 70.08476562 -24.1171875 69.61328125 C-11.31086869 59.6958297 -2.73893912 43.71298035 0 28 C0.32582882 23.07305302 0.28794585 18.18472434 0.1875 13.25 C0.17396484 11.96867187 0.16042969 10.68734375 0.14648438 9.3671875 C0.11152705 6.24433305 0.0624609 3.12240459 0 0 Z " fill="#B31116" transform="translate(263,101)"/>
<path d="M0 0 C0.66 0 1.32 0 2 0 C7.01447367 10.96916115 7.68076339 21.65129911 3.75390625 33.109375 C3 35 3 35 2 37 C1.34 37 0.68 37 0 37 C-0.09796875 37.58007812 -0.1959375 38.16015625 -0.296875 38.7578125 C-1.30655786 44.03253501 -2.65806768 47.6751464 -6 52 C-6.70125 52.94875 -7.4025 53.8975 -8.125 54.875 C-8.74375 55.57625 -9.3625 56.2775 -10 57 C-10.66 57 -11.32 57 -12 57 C-12.33 57.99 -12.66 58.98 -13 60 C-15.328125 61.8671875 -15.328125 61.8671875 -18.25 63.875 C-22.22035723 66.6721807 -25.6111128 69.51428745 -29 73 C-34.2972973 77 -34.2972973 77 -39 77 C-39 77.66 -39 78.32 -39 79 C-39.886875 79.433125 -40.77375 79.86625 -41.6875 80.3125 C-44.89116974 81.85466679 -44.89116974 81.85466679 -47.234375 83.53125 C-50.62627767 85.33259944 -53.80052519 85.80546217 -57.5625 86.1875 C-58.28687256 86.26790527 -59.01124512 86.34831055 -59.75756836 86.43115234 C-68.81938907 87.33147941 -77.90636364 87.16927141 -87 87 C-87 86.34 -87 85.68 -87 85 C-87.5775 84.855625 -88.155 84.71125 -88.75 84.5625 C-89.86375 84.2840625 -89.86375 84.2840625 -91 84 C-91.63550781 83.89429688 -92.27101563 83.78859375 -92.92578125 83.6796875 C-98.56952102 81.83032644 -102.16328966 75.06399431 -104.75 70.0625 C-105.5222364 68.38505933 -106.27320498 66.69762341 -107 65 C-107.33257812 64.2575 -107.66515625 63.515 -108.0078125 62.75 C-112.36644759 51.75524483 -108.33145807 40.41612536 -104 30 C-102.20749746 26.8147314 -100.26243602 23.86886217 -98 21 C-97.34 21.33 -96.68 21.66 -96 22 C-96.55429688 22.99 -97.10859375 23.98 -97.6796875 25 C-98.41193739 26.3330703 -99.14368121 27.66641867 -99.875 29 C-100.23980469 29.64839844 -100.60460937 30.29679687 -100.98046875 30.96484375 C-105.97448655 40.13567644 -107.97421548 50.5814274 -105.2421875 60.84765625 C-101.86930718 69.65167062 -97.25432175 75.93497898 -89 80.75 C-76.48513051 85.96452895 -59.16658554 83.95882648 -47 79 C-37.24183479 74.6813955 -28.91569268 69.19841309 -21 62 C-19.95972656 61.09894531 -19.95972656 61.09894531 -18.8984375 60.1796875 C-7.65946903 49.83625437 1.42603298 34.96319519 2.36328125 19.5234375 C2.55496802 12.67978089 2.12178978 6.54431548 0 0 Z " fill="#AE1416" transform="translate(194,229)"/>
<path d="M0 0 C0.99 0.495 0.99 0.495 2 1 C5.19926085 10.59778255 3.81914016 22.56174782 -0.59765625 31.46875 C-1.06042969 32.3040625 -1.52320313 33.139375 -2 34 C-2.52400391 35.06734375 -2.52400391 35.06734375 -3.05859375 36.15625 C-6.07281862 41.72097284 -10.62039459 45.52014459 -15.37890625 49.60546875 C-18.02306104 51.88751044 -18.02306104 51.88751044 -19.9375 54.48046875 C-27.41605861 63.61620797 -37.47829933 68.50715506 -49 70 C-49 70.66 -49 71.32 -49 72 C-51.475 72.99 -51.475 72.99 -54 74 C-54 74.33 -54 74.66 -54 75 C-62.33980864 76.7846966 -70.6051763 78.2494001 -79.125 78.8125 C-79.82230225 78.865271 -80.51960449 78.91804199 -81.23803711 78.97241211 C-85.60438078 79.2093864 -88.95183045 78.63314005 -93 77 C-93 76.34 -93 75.68 -93 75 C-95.31 74.34 -97.62 73.68 -100 73 C-100 72.34 -100 71.68 -100 71 C-100.928125 70.62875 -100.928125 70.62875 -101.875 70.25 C-104.35068687 68.79371361 -104.95125002 67.62187494 -106 65 C-104.4840625 66.1446875 -104.4840625 66.1446875 -102.9375 67.3125 C-92.54328635 74.72493923 -80.25932907 75.31229535 -67.90429688 73.73193359 C-45.61262185 69.91034915 -23.17477896 55.36716282 -9.625 37.5625 C-2.98347799 27.94797636 0.19787396 19.3400741 0.0625 7.6875 C0.05798828 6.94693359 0.05347656 6.20636719 0.04882812 5.44335938 C0.03712175 3.62887101 0.01918898 1.81442466 0 0 Z " fill="#AA1416" transform="translate(158,360)"/>
<path d="M0 0 C3.08558593 3.64882781 3.46102166 5.78479597 3.28515625 10.44140625 C1.75802304 24.14376585 -4.8035426 34.86220732 -15.31640625 43.56640625 C-17.18579008 45.11340079 -17.18579008 45.11340079 -19.4375 47.5 C-24.75132651 52.68422099 -29.71794977 56.33812979 -36.921875 58.359375 C-39.01178018 58.92151917 -39.01178018 58.92151917 -40.78344727 60.01464844 C-45.26020823 62.00475828 -50.36357695 61.45551425 -55.1875 61.5 C-56.83588867 61.561875 -56.83588867 61.561875 -58.51757812 61.625 C-66.16293968 61.69794322 -71.36722603 60.36089107 -77 55 C-81.37081801 48.53803875 -80.28322374 40.46871497 -80 33 C-79.67 33 -79.34 33 -79 33 C-78.97421875 33.86882812 -78.9484375 34.73765625 -78.921875 35.6328125 C-78.61987474 44.58920266 -78.61987474 44.58920266 -74 52 C-66.21392653 57.87927996 -58.3562991 57.65309168 -49 57 C-37.87188136 55.11312274 -28.53772741 49.08045298 -20 42 C-19.18144531 41.38253906 -18.36289063 40.76507813 -17.51953125 40.12890625 C-8.68321997 32.66256571 -2.02409215 21.62294159 -0.48046875 10.1328125 C-0.22519705 6.74961155 -0.05519225 3.39181487 0 0 Z " fill="#BA121A" transform="translate(254,342)"/>
<path d="M0 0 C1.33256282 3.64120668 0.65840377 5.66876554 -0.8125 9.1875 C-1.34810547 10.50814453 -1.34810547 10.50814453 -1.89453125 11.85546875 C-3 14 -3 14 -5 15 C-5.556875 16.299375 -5.556875 16.299375 -6.125 17.625 C-8.58544157 22.05379483 -11.89646763 25.05521456 -16 28 C-16.66 28 -17.32 28 -18 28 C-18.19722656 28.7528125 -18.39445312 29.505625 -18.59765625 30.28125 C-20.52057909 34.0092564 -22.66516485 34.74811599 -26.4375 36.5 C-27.06712646 36.79334229 -27.69675293 37.08668457 -28.34545898 37.38891602 C-29.62570881 37.98405304 -30.90867349 38.5733861 -32.19433594 39.15673828 C-33.79375889 39.90368351 -35.35747863 40.7260509 -36.9140625 41.55859375 C-43.86396643 45.17705406 -50.20765616 46.01546319 -58 45 C-62.95279878 42.96830613 -67.19178368 39.58182662 -70 35 C-70 34.01 -70 33.02 -70 32 C-70.99 31.67 -71.98 31.34 -73 31 C-73 28.69 -73 26.38 -73 24 C-73.66 24 -74.32 24 -75 24 C-75.0809723 21.56183415 -75.14046972 19.12635616 -75.1875 16.6875 C-75.21263672 15.99720703 -75.23777344 15.30691406 -75.26367188 14.59570312 C-75.33834499 9.44325817 -75.33834499 9.44325817 -73.48828125 7.01953125 C-72.99714844 6.68308594 -72.50601562 6.34664062 -72 6 C-72.04640625 6.96679688 -72.0928125 7.93359375 -72.140625 8.9296875 C-72.44788772 20.01309268 -71.08223122 28.12443428 -63.5625 36.625 C-58.78952925 40.82521426 -53.8447296 40.41630612 -47.73046875 40.30859375 C-37.44942016 39.45811957 -29.24859525 34.94056224 -21 29 C-20.36449219 28.55011719 -19.72898437 28.10023438 -19.07421875 27.63671875 C-10.07961338 20.62712974 -4.10018042 10.46679224 0 0 Z " fill="#A71816" transform="translate(335,165)"/>
<path d="M0 0 C-1.37261114 3.07654221 -2.97045421 5.15813813 -5.3125 7.5625 C-12.98993658 16.10545135 -15.33608531 25.68758139 -15.2109375 36.86328125 C-14.85634684 42.13617569 -13.29195604 44.70804396 -9.625 48.375 C-3.48308207 51.12827356 3.06679416 51.01328016 9.5625 49.33984375 C20.57861367 44.92192317 26.61392432 36.38183257 31.41015625 25.92578125 C34.52596213 18.39516004 36.11322822 11.08682922 37 3 C37.33 3 37.66 3 38 3 C38.38800331 11.23429237 37.67597002 18.19886707 35 26 C34.67515625 26.94875 34.3503125 27.8975 34.015625 28.875 C32.12971379 33.98146726 32.12971379 33.98146726 31 36 C30.01 36.33 29.02 36.66 28 37 C26.21744992 38.75881906 26.21744992 38.75881906 24.5 40.875 C19.9683908 46.26125479 19.9683908 46.26125479 18 48 C17.34 48 16.68 48 16 48 C15.34 49.32 14.68 50.64 14 52 C12.68 52 11.36 52 10 52 C10 52.66 10 53.32 10 54 C-5.59268984 54.38927658 -5.59268984 54.38927658 -11 52 C-11.495 50.515 -11.495 50.515 -12 49 C-14.01508358 48.26676204 -14.01508358 48.26676204 -16 48 C-16 46.68 -16 45.36 -16 44 C-16.66 44 -17.32 44 -18 44 C-18.57035036 32.70706281 -18.6343887 23.17364269 -13 13 C-11.41796875 11.30078125 -11.41796875 11.30078125 -10 10 C-9.54625 9.21625 -9.0925 8.4325 -8.625 7.625 C-3.9047619 0 -3.9047619 0 0 0 Z " fill="#AF1C17" transform="translate(351,171)"/>
<path d="M0 0 C2.70309399 3.07396705 3.39250711 4.98213726 3.3125 9.0625 C3.30863281 9.91972656 3.30476563 10.77695312 3.30078125 11.66015625 C3 14 3 14 1 17 C0.24141181 19.45915951 -0.39036308 21.93552682 -1.0234375 24.4296875 C-3.85326968 31.8778058 -12.12261711 38.80433966 -19.2734375 42.0234375 C-21.1875 42.5625 -21.1875 42.5625 -24 43 C-24 43.66 -24 44.32 -24 45 C-24.66 45 -25.32 45 -26 45 C-26.33 45.99 -26.66 46.98 -27 48 C-33.37668963 51.67217924 -42.9134827 51.05419266 -50 50 C-54.60064969 47.92228724 -57.16325446 44.65084192 -59 40 C-59.1953125 37.203125 -59.1953125 37.203125 -59.125 34.25 C-59.09792969 32.77273438 -59.09792969 32.77273438 -59.0703125 31.265625 C-59.03550781 30.14414062 -59.03550781 30.14414062 -59 29 C-58.67 29 -58.34 29 -58 29 C-57.87882812 29.67546875 -57.75765625 30.3509375 -57.6328125 31.046875 C-57.46523438 31.93890625 -57.29765625 32.8309375 -57.125 33.75 C-56.96257812 34.63171875 -56.80015625 35.5134375 -56.6328125 36.421875 C-55.6872976 40.27397274 -54.9420395 42.29024422 -51.71875 44.71875 C-44.83298882 47.96376389 -37.29441888 46.41573158 -30.375 43.9375 C-18.32046428 38.80422881 -8.69813776 30.96640424 -3 19.0078125 C-0.96088826 12.87454671 -0.53305322 6.41255064 0 0 Z " fill="#A91A17" transform="translate(349,250)"/>
<path d="M0 0 C0.66 0 1.32 0 2 0 C2.33413394 8.35334853 1.28427088 14.22529374 -4 21 C-13.80631685 30.63820856 -20.31057211 33.9732451 -34.09765625 34.328125 C-37.50509936 33.9428959 -39.29155049 33.08414486 -42 31 C-44.14104088 27.94869622 -44.22152302 25.41787472 -44.125 21.75 C-44.09792969 20.41195313 -44.09792969 20.41195313 -44.0703125 19.046875 C-44.04710937 18.37140625 -44.02390625 17.6959375 -44 17 C-43.67 17 -43.34 17 -43 17 C-42.609375 18.953125 -42.21875 20.90625 -41.828125 22.859375 C-40.71192673 25.74464222 -39.4561729 27.11734971 -37 29 C-29.88253517 30.38156948 -23.21207971 29.58301329 -17.12890625 25.6171875 C-7.41562234 18.23865624 -2.1072418 12.22754782 0 0 Z " fill="#BE141C" transform="translate(388,317)"/>
<path d="M0 0 C0.66 0.33 1.32 0.66 2 1 C5.19926085 10.59778255 3.81914016 22.56174782 -0.59765625 31.46875 C-1.06042969 32.3040625 -1.52320313 33.139375 -2 34 C-2.34933594 34.7115625 -2.69867188 35.423125 -3.05859375 36.15625 C-6.60556847 42.70451101 -12.46864711 47.17933177 -18 52 C-19.01176977 52.98809005 -20.0182831 53.98204523 -21 55 C-20.45457582 51.13008557 -18.76926634 49.52954009 -15.9375 46.9375 C-13.73631994 44.98714884 -13.73631994 44.98714884 -12 43 C-12 42.01 -12 41.02 -12 40 C-10.86328125 38.34375 -10.86328125 38.34375 -9.3125 36.5 C-2.41096906 27.65230275 0.19110465 18.75739231 0.0625 7.6875 C0.05798828 6.94693359 0.05347656 6.20636719 0.04882812 5.44335938 C0.03712175 3.62887101 0.01918898 1.81442466 0 0 Z M-23 55 C-22.34 55.33 -21.68 55.66 -21 56 C-21.99 56 -22.98 56 -24 56 C-23.67 55.67 -23.34 55.34 -23 55 Z M-26 57 C-25.34 57.33 -24.68 57.66 -24 58 C-34.06474397 66.16362566 -34.06474397 66.16362566 -39 68 C-41.375 67.6875 -41.375 67.6875 -43 67 C-41.35 66.67 -39.7 66.34 -38 66 C-37.67 65.01 -37.34 64.02 -37 63 C-35.35 62.67 -33.7 62.34 -32 62 C-32 61.34 -32 60.68 -32 60 C-31.195625 59.690625 -30.39125 59.38125 -29.5625 59.0625 C-27.10919595 58.23664655 -27.10919595 58.23664655 -26 57 Z " fill="#B91419" transform="translate(158,360)"/>
<path d="M0 0 C1.06837988 2.70571947 1.09303936 3.76685857 -0.00390625 6.515625 C-4.5433142 14.4794986 -9.22453999 21.74572922 -16 28 C-16.763125 28.721875 -17.52625 29.44375 -18.3125 30.1875 C-21.82334412 32.55527859 -24.8619659 33.15836595 -29 34 C-29 34.66 -29 35.32 -29 36 C-34.69987758 38.84993879 -39.6603474 39.70240607 -46 40 C-47.49853516 40.07927734 -47.49853516 40.07927734 -49.02734375 40.16015625 C-58.69401195 40.4405262 -64.60477917 38.76213339 -71.75 32.20703125 C-72.1625 31.80871094 -72.575 31.41039062 -73 31 C-72.34 30.34 -71.68 29.68 -71 29 C-70.54109375 29.40992188 -70.0821875 29.81984375 -69.609375 30.2421875 C-68.99578125 30.78101563 -68.3821875 31.31984375 -67.75 31.875 C-67.14671875 32.40867187 -66.5434375 32.94234375 -65.921875 33.4921875 C-59.37612635 38.62767323 -50.9513288 37.73115667 -43 37 C-29.33934053 34.23646429 -16.28105206 26.41022225 -7.92578125 15.22265625 C-4.73661449 10.34864667 -2.05806314 5.4478142 0 0 Z " fill="#A81917" transform="translate(280,265)"/>
<path d="M0 0 C0.33 0 0.66 0 1 0 C1.53679805 10.23892571 1.53679805 10.23892571 -2 15 C-2.433125 16.2375 -2.433125 16.2375 -2.875 17.5 C-4.02782419 20.06183153 -5.35347 21.53428286 -7.40234375 23.421875 C-9.11974026 25.06759886 -9.11974026 25.06759886 -10.94140625 27.328125 C-17.11432834 34.70471168 -24.16953789 40.66282205 -34 42 C-36.35275171 42.09163065 -38.70797002 42.13003643 -41.0625 42.125 C-42.27035156 42.12757813 -43.47820312 42.13015625 -44.72265625 42.1328125 C-47.36737407 42.02563681 -49.49533692 41.78700137 -52 41 C-52 40.34 -52 39.68 -52 39 C-53.32 38.67 -54.64 38.34 -56 38 C-56.33 36.68 -56.66 35.36 -57 34 C-54.77566716 35.07097507 -52.88600091 36.08981746 -50.9375 37.625 C-44.68065825 40.55373444 -37.9046834 39.56627729 -31.5 37.4375 C-18.63641405 32.18930374 -8.87872678 24.21170937 -2.96484375 11.5078125 C-1.50706242 7.71876143 -0.70873438 3.99468471 0 0 Z " fill="#AD1719" transform="translate(328,330)"/>
<path d="M0 0 C0 3 0 3 -1.375 4.6875 C-3 6 -3 6 -5 6 C-5 6.66 -5 7.32 -5 8 C-5.99 8 -6.98 8 -8 8 C-8 8.66 -8 9.32 -8 10 C-15.42857143 13.28571429 -15.42857143 13.28571429 -19 14 C-19 14.66 -19 15.32 -19 16 C-32.74302647 19.31728225 -46.94168169 21.97751343 -60 15 C-60.66 14.67 -61.32 14.34 -62 14 C-62 13.34 -62 12.68 -62 12 C-56 14 -56 14 -53.171875 15.0546875 C-39.2928815 19.19103778 -23.34434516 14.47479906 -11 8 C-7.18059732 5.51044796 -3.55222341 2.8562776 0 0 Z " fill="#A11314" transform="translate(237,172)"/>
<path d="M0 0 C0.99 0.33 1.98 0.66 3 1 C3.47317763 7.65077443 3.40887802 11.66293713 -1 17 C-2.00286771 18.37290981 -3.002711 19.74803244 -4 21.125 C-10.0950556 29.11425834 -10.0950556 29.11425834 -16 30 C-17.89419783 30.08907708 -19.79121591 30.13017404 -21.6875 30.125 C-23.11642578 30.12886719 -23.11642578 30.12886719 -24.57421875 30.1328125 C-27 30 -27 30 -29 29 C-29 28.34 -29 27.68 -29 27 C-28.3709375 27.04640625 -27.741875 27.0928125 -27.09375 27.140625 C-20.76270794 27.40759665 -16.14227883 26.85670912 -11 23 C-3.48199124 15.97519394 -1.03855278 10.03934356 0 0 Z " fill="#BD1F1A" transform="translate(439,261)"/>
<path d="M0 0 C1 2 1 2 0.21484375 5.01171875 C-2.21119362 11.99306789 -4.41666303 17.92941846 -10 23 C-10.4846875 23.47953125 -10.969375 23.9590625 -11.46875 24.453125 C-17.07424267 29.64118736 -23.39771762 30.44790384 -30.75390625 30.3359375 C-33 30 -33 30 -35.625 28 C-36.07875 27.34 -36.5325 26.68 -37 26 C-36.67 25.34 -36.34 24.68 -36 24 C-34.515 24.99 -34.515 24.99 -33 26 C-25.77149429 27.40431092 -20.02166562 24.82715015 -14 21 C-7.39570748 15.59648794 -3.02038258 7.88655452 0 0 Z " fill="#AF1918" transform="translate(431,206)"/>
<path d="M0 0 C0.66 0.33 1.32 0.66 2 1 C1.16855469 2.485 1.16855469 2.485 0.3203125 4 C-0.41193739 5.3330703 -1.14368121 6.66641867 -1.875 8 C-2.23980469 8.64839844 -2.60460937 9.29679687 -2.98046875 9.96484375 C-7.93066295 19.05520037 -10.05406118 29.56726314 -7.2421875 39.7421875 C-6.26089027 42.2224742 -5.1687345 44.60290169 -4 47 C-3.28893593 48.64465539 -2.58049968 50.29045001 -1.875 51.9375 C-0.731528 54.5410251 0.40425334 56.60638001 2 59 C-4.32118117 56.46607824 -6.67996038 49.96713384 -9.30859375 44.05859375 C-13.97414075 31.67632887 -10.91466859 20.8186078 -6 9 C-4.20749746 5.8147314 -2.26243602 2.86886217 0 0 Z " fill="#B41116" transform="translate(96,250)"/>
<path d="M0 0 C1.06942352 3.20827057 0.97413864 5.21177472 0.8125 8.5625 C0.74380976 14.86673803 2.33102496 19.37956715 5 25 C5.33257812 25.85722656 5.66515625 26.71445313 6.0078125 27.59765625 C7.58916885 31.44717022 7.58916885 31.44717022 10.8125 33.87890625 C16.48202262 35.65063207 22.1514366 36.96215472 28 38 C28 38.33 28 38.66 28 39 C25.91695462 39.05418326 23.83350232 39.09287551 21.75 39.125 C20.58984375 39.14820313 19.4296875 39.17140625 18.234375 39.1953125 C12.91394622 38.87403057 9.95448319 36.44749817 6 33 C3 29.5862069 3 29.5862069 3 26 C2.01 25.67 1.02 25.34 0 25 C0 22.69 0 20.38 0 18 C-0.66 18 -1.32 18 -2 18 C-2.05397335 15.5622037 -2.09365616 13.12560315 -2.125 10.6875 C-2.14175781 9.99720703 -2.15851563 9.30691406 -2.17578125 8.59570312 C-2.21217794 4.82864604 -2.14378864 3.21568296 0 0 Z " fill="#B51117" transform="translate(262,171)"/>
<path d="M0 0 C0.66 0 1.32 0 2 0 C6.12217105 12.36651316 2.97822954 24.66862923 -2.4921875 36.125 C-6.4075 43.605 -6.4075 43.605 -10 46 C-9.01 43.03 -9.01 43.03 -8 40 C-7.34 40 -6.68 40 -6 40 C-5.87625 39.0925 -5.7525 38.185 -5.625 37.25 C-5 34 -5 34 -4.0625 32.1875 C0.75546299 22.26816443 0.37644849 10.73575338 0 0 Z " fill="#BB1219" transform="translate(338,139)"/>
<path d="M0 0 C0.66 0 1.32 0 2 0 C2 2 2 2 -0.1875 4.25 C-1.5796875 5.61125 -1.5796875 5.61125 -3 7 C-3.9069573 8.09504787 -4.80312484 9.19913485 -5.6875 10.3125 C-6.450625 11.199375 -7.21375 12.08625 -8 13 C-8.66 13 -9.32 13 -10 13 C-10 13.66 -10 14.32 -10 15 C-17.53994257 18.26682231 -23.78762084 19.57184845 -32 19 C-32 18.34 -32 17.68 -32 17 C-32.8971875 16.9071875 -32.8971875 16.9071875 -33.8125 16.8125 C-36 16 -36 16 -37.75 14 C-39.4428059 9.93726584 -39.25533894 6.34076193 -39 2 C-38.67 2 -38.34 2 -38 2 C-37.89042969 2.68707031 -37.78085937 3.37414062 -37.66796875 4.08203125 C-37.50941406 4.98308594 -37.35085938 5.88414062 -37.1875 6.8125 C-37.03667969 7.70582031 -36.88585937 8.59914063 -36.73046875 9.51953125 C-35.93036292 12.23646816 -35.22497616 13.29220958 -33 15 C-26.41758422 17.19413859 -22.07183249 16.31917211 -15.9375 13.375 C-9.34836408 9.84748279 -4.40404745 6.02659124 0 0 Z " fill="#AC1718" transform="translate(397,275)"/>
<path d="M0 0 C0.825 0.763125 1.65 1.52625 2.5 2.3125 C9.6766535 8.18734193 16.95486971 8.65465358 26 8 C31.72922342 7.31325624 37.41887732 6.48919379 43 5 C43 4.34 43 3.68 43 3 C44.98 2.34 46.96 1.68 49 1 C49 1.66 49 2.32 49 3 C47.68 3.33 46.36 3.66 45 4 C45 4.66 45 5.32 45 6 C34.76355503 10.90119538 22.30036877 14.48683848 11.02734375 11.109375 C8.76259793 9.9146176 6.93353575 8.67188756 5 7 C4.45859375 6.54496094 3.9171875 6.08992188 3.359375 5.62109375 C1.9375 4.3125 1.9375 4.3125 0 2 C0 1.34 0 0.68 0 0 Z " fill="#B70F19" transform="translate(208,296)"/>
<path d="M0 0 C0.66 0.33 1.32 0.66 2 1 C3.70743635 6.58176463 4.48223434 11.99806965 4.8125 17.8125 C4.85818115 18.59351074 4.9038623 19.37452148 4.95092773 20.17919922 C5.20839583 26.52221739 4.31819705 32.05389004 2 38 C1.34 38 0.68 38 0 38 C-0.67822864 35.36244419 -1.08825071 33.42795358 -0.53344727 30.73754883 C0.08525836 27.56247047 0.11242571 24.62122986 0.09765625 21.38671875 C0.09443359 20.13955078 0.09121094 18.89238281 0.08789062 17.60742188 C0.07951172 16.31384766 0.07113281 15.02027344 0.0625 13.6875 C0.05798828 12.37458984 0.05347656 11.06167969 0.04882812 9.70898438 C0.03705949 6.4726099 0.0206176 3.23632822 0 0 Z " fill="#BA0E17" transform="translate(263,101)"/>
<path d="M0 0 C1.02136009 2.67318936 1.03784571 3.87745198 0.1796875 6.65625 C-0.25085938 7.5946875 -0.68140625 8.533125 -1.125 9.5 C-1.74761719 10.90765625 -1.74761719 10.90765625 -2.3828125 12.34375 C-4.22050982 15.36219004 -6.21478945 16.85429399 -9 19 C-10.45647217 20.75946091 -11.87221589 22.55326324 -13.25 24.375 C-18.25863264 30.58803021 -23.37119207 35.77897993 -31.5625 36.875 C-33.2640625 36.936875 -33.2640625 36.936875 -35 37 C-32.00879685 34.68129217 -28.90976112 32.67007933 -25.6875 30.6875 C-13.88566302 23.15308222 -4.8433187 13.41226718 0 0 Z " fill="#AD1B18" transform="translate(252,359)"/>
<path d="M0 0 C-1.37261114 3.07654221 -2.97045421 5.15813813 -5.3125 7.5625 C-13.97889059 17.20589496 -15.38469274 27.55666939 -15 40 C-14.76733289 42.69974081 -14.42018316 45.32133235 -14 48 C-14.66 48 -15.32 48 -16 48 C-16 46.68 -16 45.36 -16 44 C-16.66 44 -17.32 44 -18 44 C-18.57035036 32.70706281 -18.6343887 23.17364269 -13 13 C-11.41796875 11.30078125 -11.41796875 11.30078125 -10 10 C-9.54625 9.21625 -9.0925 8.4325 -8.625 7.625 C-3.9047619 0 -3.9047619 0 0 0 Z " fill="#BE1919" transform="translate(351,171)"/>
<path d="M0 0 C0.66 0.33 1.32 0.66 2 1 C1.55269531 1.65484375 1.10539063 2.3096875 0.64453125 2.984375 C-6.86759412 14.32464102 -11.64996345 24.08820291 -10 38 C-9.06180539 40.80610087 -9.06180539 40.80610087 -8 43 C-9.485 43.495 -9.485 43.495 -11 44 C-14.96510622 36.23500032 -14.91339722 30.28495498 -12.25 22 C-10.41410766 16.88572849 -8.33007032 11.90802045 -6 7 C-5.34 7 -4.68 7 -4 7 C-3.71125 6.21625 -3.4225 5.4325 -3.125 4.625 C-2 2 -2 2 0 0 Z " fill="#BF1219" transform="translate(217,251)"/>
<path d="M0 0 C0.33 0 0.66 0 1 0 C0.8066989 8.06592759 0.8066989 8.06592759 -2.375 11.75 C-3.674375 12.86375 -3.674375 12.86375 -5 14 C-5.4125 14.804375 -5.825 15.60875 -6.25 16.4375 C-10.01720969 21.95377134 -16.37534357 25.45335224 -22.87109375 26.765625 C-26.91252986 27.21055375 -30.94218266 27.14967359 -35 27 C-35 26.34 -35 25.68 -35 25 C-34.23816406 24.98582031 -33.47632813 24.97164063 -32.69140625 24.95703125 C-20.77218278 24.40645538 -13.15030137 19.59129964 -5 11 C-2.54161837 7.65443381 -0.66328074 4.14550466 0 0 Z " fill="#B21C19" transform="translate(387,322)"/>
<path d="M0 0 C0.33 0 0.66 0 1 0 C1.35465249 10.46224833 0.7085213 20.97386405 -5 30 C-5.47953125 30.76183594 -5.9590625 31.52367187 -6.453125 32.30859375 C-7.92540302 34.57277889 -9.4451015 36.79195986 -11 39 C-11.680625 39.969375 -12.36125 40.93875 -13.0625 41.9375 C-15.2285712 44.24331772 -16.99892668 45.08300537 -20 46 C-18.91919113 43.34710551 -17.82703076 41.83183546 -15.75 39.8125 C-4.91647949 28.73276311 -1.50418075 15.04180751 0 0 Z " fill="#BA1219" transform="translate(284,247)"/>
<path d="M0 0 C0.33 0 0.66 0 1 0 C0.67 3.63 0.34 7.26 0 11 C-0.66 11 -1.32 11 -2 11 C-2.020625 11.70125 -2.04125 12.4025 -2.0625 13.125 C-3.42944956 17.31697864 -6.39069588 19.57434757 -10 22 C-10.66 22 -11.32 22 -12 22 C-12 22.66 -12 23.32 -12 24 C-17.82478551 27.03901852 -22.48208608 27.3540919 -29 27 C-29 26.01 -29 25.02 -29 24 C-28.1646875 24.06960938 -28.1646875 24.06960938 -27.3125 24.140625 C-21.11607638 24.43369909 -17.28638104 23.10164541 -12 20 C-11.30519531 19.70867187 -10.61039062 19.41734375 -9.89453125 19.1171875 C-7.51933169 17.71655436 -7.04122899 16.51940228 -6 14 C-5.67 13.36320312 -5.34 12.72640625 -5 12.0703125 C-2.96918416 8.11974106 -1.28146789 4.27155965 0 0 Z " fill="#B72219" transform="translate(433,307)"/>
<path d="M0 0 C2.70309399 3.07396705 3.39250711 4.98213726 3.3125 9.0625 C3.30863281 9.91972656 3.30476563 10.77695312 3.30078125 11.66015625 C3 14 3 14 1 17 C0.50231265 18.61338208 0.04734485 20.240277 -0.375 21.875 C-2.69512506 29.77256854 -7.87224845 33.83900537 -14 39 C-14.66 38.67 -15.32 38.34 -16 38 C-15.45730469 37.46890625 -14.91460937 36.9378125 -14.35546875 36.390625 C-13.64003906 35.68421875 -12.92460937 34.9778125 -12.1875 34.25 C-11.47980469 33.55390625 -10.77210938 32.8578125 -10.04296875 32.140625 C-7.96718507 30.06278237 -7.96718507 30.06278237 -6.36328125 27.734375 C-5.91339844 27.16203125 -5.46351563 26.5896875 -5 26 C-4.34 26 -3.68 26 -3 26 C-1.99845589 20.56820223 -1.46641813 15.11791276 -0.9375 9.625 C-0.84662109 8.69816406 -0.75574219 7.77132813 -0.66210938 6.81640625 C-0.43959731 4.54444096 -0.21894501 2.27231134 0 0 Z " fill="#BB111B" transform="translate(349,250)"/>
<path d="M0 0 C0.33 0 0.66 0 1 0 C1.125 6.75 1.125 6.75 0 9 C-0.66 9 -1.32 9 -2 9 C-2.0928125 10.11375 -2.0928125 10.11375 -2.1875 11.25 C-3.24938116 14.8440593 -5.02626199 15.82409414 -8 18 C-8.66 18.99 -9.32 19.98 -10 21 C-11.33076989 21.34342449 -12.66431979 21.67619874 -14 22 C-14.43054688 22.50144531 -14.86109375 23.00289062 -15.3046875 23.51953125 C-17.63740736 25.55662993 -19.14255131 25.30613436 -22.1875 25.1875 C-23.53908203 25.14689453 -23.53908203 25.14689453 -24.91796875 25.10546875 C-25.60503906 25.07066406 -26.29210937 25.03585938 -27 25 C-27 23.68 -27 22.36 -27 21 C-26.41992188 21.03480469 -25.83984375 21.06960937 -25.2421875 21.10546875 C-19.98284424 21.28772322 -16.56204402 20.90311892 -12 18 C-11.175 17.484375 -10.35 16.96875 -9.5 16.4375 C-4.99992115 12.04992312 -1.2132354 6.23949636 0 0 Z " fill="#B11F17" transform="translate(461,221)"/>
<path d="M0 0 C0.66 0.33 1.32 0.66 2 1 C-7.28636792 7.16781153 -19.23341608 8.11514869 -30 6 C-30.99 5.34 -31.98 4.68 -33 4 C-31.97229492 3.91697632 -31.97229492 3.91697632 -30.92382812 3.83227539 C-27.78240409 3.57747217 -24.64120362 3.32000565 -21.5 3.0625 C-20.42234375 2.97548828 -19.3446875 2.88847656 -18.234375 2.79882812 C-8.52697906 2.84102831 -8.52697906 2.84102831 0 0 Z " fill="#BB0F18" transform="translate(145,312)"/>
<path d="M0 0 C0.66 0.33 1.32 0.66 2 1 C1.57847656 1.68707031 1.15695312 2.37414062 0.72265625 3.08203125 C0.17480469 3.98308594 -0.37304688 4.88414062 -0.9375 5.8125 C-1.48277344 6.70582031 -2.02804687 7.59914062 -2.58984375 8.51953125 C-4.92961609 12.63519728 -5.13559624 15.76985525 -5.125 20.4375 C-5.12757813 21.57058594 -5.13015625 22.70367187 -5.1328125 23.87109375 C-5.02325193 26.45221183 -4.75864877 28.54944405 -4 31 C-4.99 31 -5.98 31 -7 31 C-7 30.34 -7 29.68 -7 29 C-7.66 29 -8.32 29 -9 29 C-9.42030584 17.6050417 -7.37568202 10.53564104 -1 1 C-0.67 0.67 -0.34 0.34 0 0 Z " fill="#C31F1A" transform="translate(398,198)"/>
<path d="M0 0 C0.66 0.33 1.32 0.66 2 1 C1.68546875 1.53367187 1.3709375 2.06734375 1.046875 2.6171875 C-0.35255989 5.05355307 -1.68573491 7.51667192 -3 10 C-3.40347656 10.74636719 -3.80695312 11.49273437 -4.22265625 12.26171875 C-7.88302319 19.98916008 -7.3728864 27.65148783 -7 36 C-7.66 36 -8.32 36 -9 36 C-11.0453339 23.92513723 -9.04250042 13.06729542 -2.3046875 2.79296875 C-1 1 -1 1 0 0 Z " fill="#BF1618" transform="translate(56,383)"/>
<path d="M0 0 C0 3 0 3 -1.28515625 4.68359375 C-6.87844654 10.20312637 -11.19327601 14.17668562 -19.3125 14.375 C-23.69206843 14.30793157 -23.69206843 14.30793157 -26 12 C-25.32453125 11.95101563 -24.6490625 11.90203125 -23.953125 11.8515625 C-23.06109375 11.77679688 -22.1690625 11.70203125 -21.25 11.625 C-20.36828125 11.55539062 -19.4865625 11.48578125 -18.578125 11.4140625 C-15.99107947 10.99856731 -14.30376414 10.1906008 -12 9 C-11.01 9 -10.02 9 -9 9 C-9 8.34 -9 7.68 -9 7 C-7.03125 5.2734375 -7.03125 5.2734375 -4.5 3.375 C-3.6646875 2.74335938 -2.829375 2.11171875 -1.96875 1.4609375 C-1.3190625 0.97882813 -0.669375 0.49671875 0 0 Z " fill="#C2121E" transform="translate(430,322)"/>
<path d="M0 0 C3 2 3 2 3.9375 5.625 C4.42136653 10.51742825 2.52355854 13.92764803 0 18 C-0.66 18 -1.32 18 -2 18 C-2 18.66 -2 19.32 -2 20 C-2.66 19.67 -3.32 19.34 -4 19 C-3.525625 17.906875 -3.05125 16.81375 -2.5625 15.6875 C-0.61291255 10.56523487 -0.28970046 5.43438112 0 0 Z " fill="#BA1F19" transform="translate(401,255)"/>
<path d="M0 0 C0.66 0 1.32 0 2 0 C1.02062658 5.69817264 -3.36057405 9.9343623 -7.796875 13.40625 C-9.16670932 14.31947288 -10.57918825 15.16830531 -12 16 C-12.66 15.67 -13.32 15.34 -14 15 C-13.319375 14.319375 -12.63875 13.63875 -11.9375 12.9375 C-11.48632812 12.48503906 -11.03515625 12.03257812 -10.5703125 11.56640625 C-9.4451972 10.44408974 -8.31430749 9.32755048 -7.1796875 8.21484375 C-6.56351562 7.60769531 -5.94734375 7.00054687 -5.3125 6.375 C-4.73113281 5.80523437 -4.14976562 5.23546875 -3.55078125 4.6484375 C-1.79748102 2.87617026 -1.79748102 2.87617026 0 0 Z " fill="#BD101B" transform="translate(379,207)"/>
<path d="M0 0 C0.66 0 1.32 0 2 0 C1.83886719 0.52464844 1.67773438 1.04929688 1.51171875 1.58984375 C0.86905009 4.61676409 0.83009652 7.46903243 0.8125 10.5625 C0.79832031 11.69816406 0.78414063 12.83382812 0.76953125 14.00390625 C0.76828161 17.1824443 0.76828161 17.1824443 3 20 C0 20 0 20 -1.625 19 C-3.78611823 15.85655531 -4.24321849 12.72508313 -4 9 C-2.95178231 5.83575408 -1.58075167 2.93083572 0 0 Z " fill="#C3161C" transform="translate(432,222)"/>
<path d="M0 0 C0.33 0 0.66 0 1 0 C1.1969993 4.0829333 1.38095476 8.16635266 1.5625 12.25 C1.61857422 13.40886719 1.67464844 14.56773438 1.73242188 15.76171875 C1.78076172 16.87675781 1.82910156 17.99179688 1.87890625 19.140625 C1.9260376 20.16704102 1.97316895 21.19345703 2.02172852 22.25097656 C2.00222257 24.71880683 1.72799029 26.65670465 1 29 C0.34 29 -0.32 29 -1 29 C-1.65212034 26.46397644 -2.11113773 24.52393502 -1.5625 21.9375 C-0.75275463 17.70882975 -0.63288255 13.48271304 -0.4375 9.1875 C-0.37272461 7.86202148 -0.37272461 7.86202148 -0.30664062 6.50976562 C-0.20108464 4.34000377 -0.10008929 2.1700209 0 0 Z " fill="#BF2D17" transform="translate(264,110)"/>
<path d="M0 0 C0.66 0 1.32 0 2 0 C0.65731636 3.48473243 -0.86033096 6.80195955 -2.5625 10.125 C-3.91337093 12.76260555 -5.06107757 15.1832327 -6 18 C-6.66 18 -7.32 18 -8 18 C-8 22.95 -8 27.9 -8 33 C-8.33 33 -8.66 33 -9 33 C-9.75035932 22.05031219 -9.01958943 14.56397055 -3 5 C-2.48050781 4.06542969 -1.96101562 3.13085938 -1.42578125 2.16796875 C-0.95527344 1.45253906 -0.48476562 0.73710937 0 0 Z " fill="#C3171B" transform="translate(182,357)"/>
<path d="M0 0 C0.66 0.33 1.32 0.66 2 1 C2.54992842 10.84982908 2.73261543 18.48297137 -3 27 C-3.88475516 24.54605643 -4.13428218 23.36640817 -3.22265625 20.87890625 C-2.83980469 20.11449219 -2.45695312 19.35007813 -2.0625 18.5625 C0.61529958 12.40632158 0.37272594 6.60553202 0 0 Z " fill="#BF111C" transform="translate(431,195)"/>
<path d="M0 0 C0.66 0.33 1.32 0.66 2 1 C-1.30173605 5.12717006 -4.91028488 6.32712241 -10 7 C-13.3418417 7.14281375 -16.65796742 7.12327169 -20 7 C-20 6.34 -20 5.68 -20 5 C-19.2265625 4.97421875 -18.453125 4.9484375 -17.65625 4.921875 C-10.66583152 4.54120865 -6.09024514 3.38346952 0 0 Z " fill="#AC2517" transform="translate(372,342)"/>
<path d="M0 0 C0 0.99 0 1.98 0 3 C-1.98 3.99 -1.98 3.99 -4 5 C-4 5.66 -4 6.32 -4 7 C-6.60919828 8.30459914 -8.58942615 8.1326594 -11.5 8.125 C-12.4796875 8.12757813 -13.459375 8.13015625 -14.46875 8.1328125 C-17 8 -17 8 -19 7 C-19 6.34 -19 5.68 -19 5 C-18.05640625 5.06960938 -18.05640625 5.06960938 -17.09375 5.140625 C-10.71522961 5.40959875 -6.372897 4.49308448 -1 1 C-0.67 0.67 -0.34 0.34 0 0 Z " fill="#AB1C17" transform="translate(429,283)"/>
<path d="M0 0 C2.68585151 3.06243916 3.41177958 4.99835659 3.375 9.0625 C3.38273437 9.91972656 3.39046875 10.77695312 3.3984375 11.66015625 C2.93135469 14.40312296 2.13044088 15.28099347 0 17 C-0.98844951 13.05352382 -0.96191905 9.72607036 -0.5625 5.6875 C-0.46066406 4.61886719 -0.35882813 3.55023438 -0.25390625 2.44921875 C-0.17011719 1.64097656 -0.08632813 0.83273438 0 0 Z " fill="#C01D1B" transform="translate(349,250)"/>
<path d="M0 0 C1.33256282 3.64120668 0.65840377 5.66876554 -0.8125 9.1875 C-1.16957031 10.06792969 -1.52664063 10.94835937 -1.89453125 11.85546875 C-3 14 -3 14 -5 15 C-5.6496875 16.485 -5.6496875 16.485 -6.3125 18 C-8 21 -8 21 -10.6875 21.875 C-11.450625 21.91625 -12.21375 21.9575 -13 22 C-12.64808594 21.58492187 -12.29617188 21.16984375 -11.93359375 20.7421875 C-6.8330319 14.37647324 -3.47798349 7.32640309 0 0 Z " fill="#AF2016" transform="translate(335,165)"/>
<path d="M0 0 C0.33 0.66 0.66 1.32 1 2 C-1.16798732 7.4770206 -1.16798732 7.4770206 -4.1875 9.375 C-4.785625 9.58125 -5.38375 9.7875 -6 10 C-6 10.66 -6 11.32 -6 12 C-10.30232558 16.76744186 -10.30232558 16.76744186 -14 18 C-14 16 -14 16 -11.8125 13.75 C-10.884375 12.8425 -9.95625 11.935 -9 11 C-8.0930427 9.90495213 -7.19687516 8.80086515 -6.3125 7.6875 C-5.1678125 6.3571875 -5.1678125 6.3571875 -4 5 C-3.34 5 -2.68 5 -2 5 C-2 3.68 -2 2.36 -2 1 C-1.34 0.67 -0.68 0.34 0 0 Z " fill="#C0121D" transform="translate(401,272)"/>
<path d="M0 0 C0.66 0.66 1.32 1.32 2 2 C1.65066406 2.66644531 1.30132812 3.33289063 0.94140625 4.01953125 C-2.38693872 10.76107985 -3.84019879 16.4893431 -4 24 C-4.33 24 -4.66 24 -5 24 C-6.80311761 14.96481284 -5.12002457 7.68003686 0 0 Z " fill="#C5271A" transform="translate(296,262)"/>
<path d="M0 0 C0.66 0.33 1.32 0.66 2 1 C1.43410156 2.02480469 0.86820313 3.04960937 0.28515625 4.10546875 C-0.45607541 5.46595725 -1.19694164 6.82664489 -1.9375 8.1875 C-2.31068359 8.86103516 -2.68386719 9.53457031 -3.06835938 10.22851562 C-5.00554868 13.80620758 -6.49827956 16.8986345 -7 21 C-8.09765625 19.30078125 -8.09765625 19.30078125 -9 17 C-7.60909102 10.56300262 -4.00042471 5.1116538 0 0 Z " fill="#C11C17" transform="translate(96,250)"/>
<path d="M0 0 C-1.47942566 3.90030402 -3.22965548 5.27192543 -7 7 C-10.3107098 7.81626995 -13.63641068 8.44484448 -17 9 C-15.67837389 6.35674778 -14.45029888 6.17570269 -11.75 5.0625 C-8.03381854 3.48504301 -3.95730559 0 0 0 Z " fill="#B80F19" transform="translate(310,200)"/>
<path d="M0 0 C-5.26723095 3.24727345 -9.39949939 3.37334093 -15.375 3.1875 C-16.20644531 3.17396484 -17.03789062 3.16042969 -17.89453125 3.14648438 C-19.92997066 3.11139059 -21.96507291 3.05759228 -24 3 C-24.33 2.34 -24.66 1.68 -25 1 C-24.32195312 1.02320313 -23.64390625 1.04640625 -22.9453125 1.0703125 C-17.09339162 1.18378465 -11.87224194 0.77175126 -6.19140625 -0.66015625 C-3.80911192 -1.02960296 -2.27365569 -0.74062133 0 0 Z " fill="#B6101A" transform="translate(323,297)"/>
<path d="M0 0 C0 3 0 3 -2.01171875 5.19140625 C-2.89472656 5.97386719 -3.77773437 6.75632812 -4.6875 7.5625 C-5.99267578 8.74005859 -5.99267578 8.74005859 -7.32421875 9.94140625 C-9.85576614 11.88903468 -11.98881924 12.99627308 -15 14 C-12.75502141 9.56518264 -9.79547112 7.00701195 -5.8125 4.1875 C-5.25369141 3.78080078 -4.69488281 3.37410156 -4.11914062 2.95507812 C-2.75200695 1.96186136 -1.3768019 0.97977066 0 0 Z " fill="#BB0F18" transform="translate(179,289)"/>
<path d="M0 0 C0 0.66 0 1.32 0 2 C-5.82478551 5.03901852 -10.48208608 5.3540919 -17 5 C-17 4.01 -17 3.02 -17 2 C-16.11248047 2.03480469 -16.11248047 2.03480469 -15.20703125 2.0703125 C-9.71863354 2.19565927 -5.18985954 0 0 0 Z " fill="#A91918" transform="translate(421,329)"/>
<path d="M0 0 C0.33 0 0.66 0 1 0 C1.12117188 0.67546875 1.24234375 1.3509375 1.3671875 2.046875 C1.53476562 2.93890625 1.70234375 3.8309375 1.875 4.75 C2.03742188 5.63171875 2.19984375 6.5134375 2.3671875 7.421875 C2.97480082 9.89733667 3.67822299 11.82641115 5 14 C5.66 14.33 6.32 14.66 7 15 C7.625 17.0625 7.625 17.0625 8 19 C3.70754471 17.46698025 1.98077463 15.0322912 0 11 C-0.32510555 7.3070041 -0.23678364 3.69645571 0 0 Z " fill="#B51619" transform="translate(290,279)"/>
<path d="M0 0 C0.99 0.33 1.98 0.66 3 1 C2.50628906 1.88042969 2.01257813 2.76085937 1.50390625 3.66796875 C0.85641951 4.84095197 0.20930364 6.01413997 -0.4375 7.1875 C-1.07558594 8.33605469 -1.71367187 9.48460937 -2.37109375 10.66796875 C-3.78759035 13.56550257 -4.57639893 15.83194128 -5 19 C-5.33 19 -5.66 19 -6 19 C-5.82703776 11.46828078 -4.12206799 6.29718136 0 0 Z " fill="#C31F18" transform="translate(269,153)"/>
<path d="M0 0 C0.33 0.66 0.66 1.32 1 2 C-1.97818634 2.88099735 -4.45292865 3.06705164 -7.546875 2.87890625 C-8.39121094 2.83056641 -9.23554688 2.78222656 -10.10546875 2.73242188 C-10.97816406 2.67634766 -11.85085937 2.62027344 -12.75 2.5625 C-13.63816406 2.51029297 -14.52632813 2.45808594 -15.44140625 2.40429688 C-17.62799196 2.27498267 -19.81407894 2.14003358 -22 2 C-22 1.67 -22 1.34 -22 1 C-19.45847098 0.83096719 -16.91681012 0.66470573 -14.375 0.5 C-13.30572266 0.42845703 -13.30572266 0.42845703 -12.21484375 0.35546875 C-8.13492439 0.09345558 -4.09108781 -0.05162256 0 0 Z " fill="#AE2C16" transform="translate(139,312)"/>
<path d="M0 0 C0.66 0.66 1.32 1.32 2 2 C1.505 2.969375 1.01 3.93875 0.5 4.9375 C-1.90093612 10.50948382 -1.6146419 16.23156159 0 22 C-0.99 21.67 -1.98 21.34 -3 21 C-4.16406302 12.69972453 -4.63606415 7.16482641 0 0 Z " fill="#C1201B" transform="translate(273,342)"/>
<path d="M0 0 C0.66 0 1.32 0 2 0 C1.54554036 1.41791408 1.08625056 2.83428046 0.625 4.25 C0.36976563 5.03890625 0.11453125 5.8278125 -0.1484375 6.640625 C-1 9 -1 9 -2.0625 11 C-3.14316198 13.30541223 -3.40186322 15.22111654 -3.625 17.75 C-3.69976562 18.54921875 -3.77453125 19.3484375 -3.8515625 20.171875 C-3.90054687 20.77515625 -3.94953125 21.3784375 -4 22 C-4.33 22 -4.66 22 -5 22 C-5.46964456 13.51160939 -4.07864533 7.52980676 0 0 Z " fill="#C5161C" transform="translate(362,264)"/>
<path d="M0 0 C0.66 0.33 1.32 0.66 2 1 C1.27683594 2.12148437 1.27683594 2.12148437 0.5390625 3.265625 C-0.09257812 4.25046875 -0.72421875 5.2353125 -1.375 6.25 C-2.31472656 7.71179688 -2.31472656 7.71179688 -3.2734375 9.203125 C-4.65134852 11.43521615 -5.88312642 13.63087422 -7 16 C-7.66 16 -8.32 16 -9 16 C-8.01 13.03 -7.02 10.06 -6 7 C-5.34 7 -4.68 7 -4 7 C-3.71125 6.21625 -3.4225 5.4325 -3.125 4.625 C-2 2 -2 2 0 0 Z " fill="#C41B1A" transform="translate(217,251)"/>
<path d="M0 0 C1.62580966 0.11398665 3.25067157 0.24155659 4.875 0.375 C5.77992188 0.44460937 6.68484375 0.51421875 7.6171875 0.5859375 C10 1 10 1 12 3 C9.47524538 4.26237731 7.68799534 4.09856404 4.875 4.0625 C3.96492188 4.05347656 3.05484375 4.04445312 2.1171875 4.03515625 C1.41851562 4.02355469 0.71984375 4.01195312 0 4 C0 2.68 0 1.36 0 0 Z " fill="#AF121A" transform="translate(434,242)"/>
<path d="M0 0 C0.66 0.33 1.32 0.66 2 1 C-1.8672289 6.54302809 -6.48655452 9.95437103 -13 12 C-15.8125 11.62890625 -15.8125 11.62890625 -18 11 C-18 10.67 -18 10.34 -18 10 C-13.545 9.505 -13.545 9.505 -9 9 C-8.67 8.01 -8.34 7.02 -8 6 C-7.401875 5.87625 -6.80375 5.7525 -6.1875 5.625 C-2.99895456 4.71398702 -1.88378299 2.62384059 0 0 Z " fill="#C0121D" transform="translate(455,236)"/>
<path d="M0 0 C5.28 0 10.56 0 16 0 C15.67 0.66 15.34 1.32 15 2 C9.66174407 3.39356576 5.08931047 3.21841738 0 1 C0 0.67 0 0.34 0 0 Z " fill="#C0111B" transform="translate(188,403)"/>
<path d="M0 0 C0.8125 1.6875 0.8125 1.6875 1 4 C-1.125 6.4375 -1.125 6.4375 -4 9 C-5.299375 10.3921875 -5.299375 10.3921875 -6.625 11.8125 C-9 14 -9 14 -12 14 C-11.38511719 13.32453125 -10.77023437 12.6490625 -10.13671875 11.953125 C-9.32847656 11.06109375 -8.52023437 10.1690625 -7.6875 9.25 C-6.88699219 8.36828125 -6.08648437 7.4865625 -5.26171875 6.578125 C-3.39083089 4.44550672 -1.65915714 2.29812057 0 0 Z " fill="#BE111C" transform="translate(322,350)"/>
<path d="M0 0 C0.33 0 0.66 0 1 0 C1.13277344 0.62648438 1.26554687 1.25296875 1.40234375 1.8984375 C1.57894531 2.71570313 1.75554687 3.53296875 1.9375 4.375 C2.11152344 5.18710937 2.28554688 5.99921875 2.46484375 6.8359375 C2.92330693 9.029463 2.92330693 9.029463 4 11 C3.67 11.66 3.34 12.32 3 13 C6.3 13.33 9.6 13.66 13 14 C13 14.33 13 14.66 13 15 C11.5629191 15.05422947 10.12524538 15.09289723 8.6875 15.125 C7.88699219 15.14820313 7.08648437 15.17140625 6.26171875 15.1953125 C4 15 4 15 1 13 C-0.08875763 10.08835102 -0.1078649 7.33481334 -0.0625 4.25 C-0.05347656 3.45078125 -0.04445313 2.6515625 -0.03515625 1.828125 C-0.02355469 1.22484375 -0.01195312 0.6215625 0 0 Z " fill="#BA141B" transform="translate(407,277)"/>
<path d="M0 0 C-0.99 0 -1.98 0 -3 0 C-3 0.66 -3 1.32 -3 2 C-7.76052962 3.97387813 -10.96488101 4.0070238 -16 3 C-16 2.34 -16 1.68 -16 1 C-14.95199219 0.90912109 -14.95199219 0.90912109 -13.8828125 0.81640625 C-12.97273438 0.73261719 -12.06265625 0.64882813 -11.125 0.5625 C-10.22007812 0.48128906 -9.31515625 0.40007812 -8.3828125 0.31640625 C-1.84090909 -0.55227273 -1.84090909 -0.55227273 0 0 Z " fill="#C0121C" transform="translate(382,293)"/>
<path d="M0 0 C0.66 0.33 1.32 0.66 2 1 C-2.36877637 5.82864757 -6.56215747 7.36883897 -13 8 C-11.6875 6.5 -11.6875 6.5 -10 5 C-9.01 5 -8.02 5 -7 5 C-7 4.34 -7 3.68 -7 3 C-4.69631264 1.93347808 -2.35981813 0.93578995 0 0 Z " fill="#BA0F18" transform="translate(162,303)"/>
<path d="M0 0 C1.051875 0.433125 1.051875 0.433125 2.125 0.875 C8.15090871 3.23296428 13.57341962 4.45731099 20 5 C20 5.33 20 5.66 20 6 C12.30520289 6.51778074 6.78117047 5.7505733 0 2 C0 1.34 0 0.68 0 0 Z " fill="#A21516" transform="translate(181,396)"/>
<path d="M0 0 C-1.36370299 2.99220268 -2.94908083 5.29026529 -5.125 7.75 C-5.93324219 8.67039063 -5.93324219 8.67039063 -6.7578125 9.609375 C-7.16773438 10.06828125 -7.57765625 10.5271875 -8 11 C-8.70703125 9.234375 -8.70703125 9.234375 -9 7 C-7.63671875 5.078125 -7.63671875 5.078125 -5.6875 3.25 C-5.05199219 2.63640625 -4.41648437 2.0228125 -3.76171875 1.390625 C-2 0 -2 0 0 0 Z " fill="#C9211A" transform="translate(351,171)"/>
<path d="M0 0 C0.99 0.33 1.98 0.66 3 1 C2.04532436 2.62715156 1.08613152 4.25165346 0.125 5.875 C-0.40867188 6.77992187 -0.94234375 7.68484375 -1.4921875 8.6171875 C-3 11 -3 11 -5 13 C-4.54996653 7.37458159 -3.31558515 4.38512875 0 0 Z " fill="#C01D16" transform="translate(173,111)"/>
<path d="M0 0 C0.99 0.33 1.98 0.66 3 1 C2.52949219 1.45890625 2.05898438 1.9178125 1.57421875 2.390625 C-3.03368398 6.91549295 -3.03368398 6.91549295 -7 12 C-6.67566492 6.64847115 -3.50295176 3.71719957 0 0 Z " fill="#CC261A" transform="translate(441,210)"/>
<path d="M0 0 C0 3 0 3 -2.25 5.5 C-4.43541108 7.48673735 -6.58854412 9.30304957 -9 11 C-9.66 10.67 -10.32 10.34 -11 10 C-7.50640535 6.40365256 -3.88901869 3.16548033 0 0 Z " fill="#BA0F19" transform="translate(327,185)"/>
<path d="M0 0 C0.33 0 0.66 0 1 0 C1.04898438 0.80824219 1.09796875 1.61648438 1.1484375 2.44921875 C1.22320312 3.51785156 1.29796875 4.58648437 1.375 5.6875 C1.44460937 6.74324219 1.51421875 7.79898437 1.5859375 8.88671875 C1.98760089 11.90677269 2.74069019 14.24078054 4 17 C3.01 17.33 2.02 17.66 1 18 C-0.2062252 14.38132441 -0.10816918 11.07493749 -0.0625 7.3125 C-0.05798828 6.61060547 -0.05347656 5.90871094 -0.04882812 5.18554688 C-0.03706927 3.45699462 -0.01913454 1.72848635 0 0 Z " fill="#B41718" transform="translate(205,277)"/>
<path d="M0 0 C0 0.33 0 0.66 0 1 C-5.28 1 -10.56 1 -16 1 C-16 0.67 -16 0.34 -16 0 C-5.62642369 -2.66514806 -5.62642369 -2.66514806 0 0 Z " fill="#AF2317" transform="translate(104,434)"/>
<path d="M0 0 C3 2 3 2 3.58203125 3.875 C3.65808594 4.57625 3.73414063 5.2775 3.8125 6 C3.90144531 6.70125 3.99039062 7.4025 4.08203125 8.125 C4 10 4 10 2 12 C-0.60018816 8.09971775 -0.15085514 4.52565431 0 0 Z " fill="#C9251B" transform="translate(401,255)"/>
<path d="M0 0 C0 0.66 0 1.32 0 2 C-0.9590625 2.1546875 -0.9590625 2.1546875 -1.9375 2.3125 C-2.618125 2.539375 -3.29875 2.76625 -4 3 C-4.33 3.99 -4.66 4.98 -5 6 C-7.31 6 -9.62 6 -12 6 C-9 4 -9 4 -6 4 C-6 3.34 -6 2.68 -6 2 C-2.25 0 -2.25 0 0 0 Z " fill="#BA1019" transform="translate(115,428)"/>
<path d="M0 0 C0 0.66 0 1.32 0 2 C-5.57710648 3.06795656 -10.39436958 2.82622671 -16 2 C-16 1.67 -16 1.34 -16 1 C-13.89594609 0.83191581 -11.79175242 0.66558052 -9.6875 0.5 C-8.51574219 0.4071875 -7.34398437 0.314375 -6.13671875 0.21875 C-4.094806 0.07635011 -2.0468721 0 0 0 Z " fill="#B33717" transform="translate(208,399)"/>
<path d="M0 0 C0.33 0 0.66 0 1 0 C1.28875 1.216875 1.5775 2.43375 1.875 3.6875 C2.67835792 6.91814648 3.66265409 9.94320935 5 13 C1.125 11.125 1.125 11.125 0 10 C-0.07205511 8.31391034 -0.08386068 6.62499341 -0.0625 4.9375 C-0.05347656 4.01839844 -0.04445313 3.09929687 -0.03515625 2.15234375 C-0.02355469 1.44207031 -0.01195312 0.73179687 0 0 Z " fill="#BB141C" transform="translate(399,321)"/>
<path d="M0 0 C-0.33 0.66 -0.66 1.32 -1 2 C-3.06640625 2.6328125 -3.06640625 2.6328125 -5.5625 3.125 C-6.38878906 3.29257812 -7.21507812 3.46015625 -8.06640625 3.6328125 C-8.70449219 3.75398438 -9.34257812 3.87515625 -10 4 C-10 3.34 -10 2.68 -10 2 C-3.375 -1.125 -3.375 -1.125 0 0 Z " fill="#A81A17" transform="translate(218,397)"/>
<path d="M0 0 C0.99 0.33 1.98 0.66 3 1 C0.69 3.31 -1.62 5.62 -4 8 C-4.66 7.34 -5.32 6.68 -6 6 C-4.02 4.02 -2.04 2.04 0 0 Z " fill="#C91E1B" transform="translate(191,347)"/>
<path d="M0 0 C0.66 0.33 1.32 0.66 2 1 C-2.39453125 5.00390625 -2.39453125 5.00390625 -4 6 C-4.99 5.67 -5.98 5.34 -7 5 C-6.34 4.67 -5.68 4.34 -5 4 C-5 3.34 -5 2.68 -5 2 C-2.625 0.9375 -2.625 0.9375 0 0 Z " fill="#BE111B" transform="translate(330,291)"/>
<path d="M0 0 C0.33 0 0.66 0 1 0 C1.04898437 0.68707031 1.09796875 1.37414062 1.1484375 2.08203125 C1.22320312 2.98308594 1.29796875 3.88414062 1.375 4.8125 C1.44460938 5.70582031 1.51421875 6.59914062 1.5859375 7.51953125 C1.86645036 10.24398499 1.86645036 10.24398499 4 13 C3.01 13 2.02 13 1 13 C-0.32229189 10.35541621 -0.09677194 8.32238699 -0.0625 5.375 C-0.05347656 4.37210938 -0.04445313 3.36921875 -0.03515625 2.3359375 C-0.02355469 1.56507813 -0.01195312 0.79421875 0 0 Z " fill="#C54B12" transform="translate(431,229)"/>
<path d="M0 0 C0.66 0 1.32 0 2 0 C3.49524178 2.2727675 4.78399715 4.5679943 6 7 C4.02 6.34 2.04 5.68 0 5 C0 3.35 0 1.7 0 0 Z " fill="#BC111B" transform="translate(392,229)"/>
<path d="M0 0 C0.66 0.33 1.32 0.66 2 1 C-0.475 4.465 -0.475 4.465 -3 8 C-3.66 7.34 -4.32 6.68 -5 6 C-3.35 4.02 -1.7 2.04 0 0 Z " fill="#C41918" transform="translate(276,144)"/>
<path d="M0 0 C2.31 1.98 4.62 3.96 7 6 C6.01 6.33 5.02 6.66 4 7 C0 2.25 0 2.25 0 0 Z " fill="#A61A14" transform="translate(168,177)"/>
</svg>
